<?xml version="1.0" standalone="no"?>
<!DOCTYPE svg PUBLIC "-//W3C//DTD SVG 20010904//EN"
 "http://www.w3.org/TR/2001/REC-SVG-20010904/DTD/svg10.dtd">
<svg version="1.0" xmlns="http://www.w3.org/2000/svg"
 width="300.000000pt" height="300.000000pt" viewBox="0 0 300.000000 300.000000"
 preserveAspectRatio="xMidYMid meet">
<metadata>
Created by potrace 1.10, written by Peter Selinger 2001-2011
</metadata>
<g transform="translate(0.000000,300.000000) scale(0.100000,-0.100000)"
fill="#000000" stroke="none">
<path d="M1400 2774 c-246 -49 -429 -208 -511 -444 -19 -54 -23 -86 -22 -190
0 -109 3 -135 26 -198 61 -175 191 -316 355 -387 l42 -19 0 -470 0 -470 42
-61 c103 -149 141 -196 158 -193 22 4 222 245 218 262 -2 8 -33 41 -70 74
l-66 60 69 46 c38 25 69 53 69 61 0 8 -30 33 -66 56 l-65 42 65 39 c36 21 66
46 66 54 0 8 -29 33 -65 56 -36 23 -65 44 -64 47 0 3 28 29 62 57 l62 50 3
145 3 144 60 29 c139 66 266 199 322 340 138 344 -50 736 -407 848 -60 19
-234 32 -286 22z m225 -39 c33 -9 65 -17 70 -19 6 -2 13 -4 18 -4 36 -4 144
-79 212 -147 84 -84 122 -143 157 -247 34 -96 31 -265 -6 -372 -49 -144 -174
-284 -317 -357 -39 -19 -63 -38 -69 -55 -6 -14 -10 -78 -10 -143 l0 -117 -61
-62 c-38 -38 -59 -67 -57 -79 2 -9 22 -31 45 -48 23 -16 42 -37 42 -46 1 -9
-17 -30 -39 -48 -22 -17 -40 -41 -40 -51 0 -11 19 -34 43 -52 48 -37 50 -56 6
-82 -39 -23 -62 -60 -54 -85 3 -11 24 -37 46 -58 63 -59 64 -67 26 -110 -18
-21 -44 -54 -59 -73 -14 -19 -40 -51 -58 -70 l-31 -35 -25 30 c-37 45 -36 44
-92 127 l-52 77 0 459 c0 371 -3 462 -14 477 -7 10 -43 35 -80 54 -299 161
-417 511 -272 806 39 79 121 175 197 230 56 41 168 92 232 105 69 13 179 11
242 -5z"/>
<path d="M1386 2453 c-61 -21 -153 -105 -186 -169 -21 -40 -25 -61 -25 -145 0
-65 4 -102 13 -110 6 -7 12 -21 12 -30 0 -24 85 -115 134 -144 22 -13 70 -30
104 -38 56 -13 72 -13 125 0 197 45 303 218 253 412 -24 95 -97 180 -185 218
-53 23 -187 26 -245 6z m240 -37 c200 -93 238 -352 73 -500 -121 -109 -293
-103 -410 13 -71 72 -94 132 -87 235 6 83 30 138 85 191 66 64 115 83 218 84
54 1 82 -5 121 -23z"/>
<path d="M1406 2395 c-54 -19 -106 -63 -141 -120 -27 -44 -30 -56 -30 -134 0
-76 3 -91 27 -132 57 -94 128 -134 238 -134 115 0 189 44 242 145 18 36 23 61
23 125 0 69 -4 86 -27 126 -69 117 -207 169 -332 124z m209 -42 c33 -17 48
-32 87 -83 45 -61 53 -149 19 -223 -26 -56 -101 -124 -155 -138 -109 -30 -226
22 -280 123 -20 38 -24 59 -23 115 2 58 7 78 32 119 68 109 203 146 320 87z"/>
<path d="M885 1735 c-221 -83 -419 -298 -471 -510 -5 -19 -12 -51 -23 -95 -6
-28 -9 -207 -8 -475 l2 -430 223 -3 222 -2 -2 241 c-2 183 -6 243 -15 247 -10
3 -13 -47 -13 -227 l0 -231 -192 2 -193 3 0 430 c0 490 1 496 83 665 39 78 62
110 132 180 86 87 183 152 266 179 l42 13 65 -66 c60 -60 128 -109 200 -145
19 -10 27 -22 27 -40 0 -14 1 -222 3 -461 l2 -435 89 -128 c132 -189 155 -201
236 -120 69 70 189 222 196 249 10 39 -5 76 -48 117 l-40 38 22 17 c56 42 70
61 70 98 0 28 -7 43 -32 66 l-31 29 31 29 c26 23 32 37 32 69 0 35 -5 44 -40
72 l-40 32 40 43 40 44 1 117 c1 65 1 123 0 129 -1 6 35 32 80 58 48 28 109
76 149 116 78 79 82 80 183 28 144 -72 260 -189 331 -331 80 -160 81 -172 81
-662 l0 -430 -190 0 -190 0 -3 229 c-3 202 -5 231 -20 242 -21 16 -23 16 -44
0 -15 -11 -18 -39 -20 -242 l-3 -229 -615 0 c-485 0 -615 3 -616 13 -1 6 -2
110 -3 230 -1 210 -2 218 -22 230 -15 10 -24 11 -32 3 -8 -8 -5 -11 11 -11
l22 0 0 -250 0 -250 640 0 640 0 0 250 c0 231 1 250 18 250 16 0 17 -17 14
-250 l-3 -250 223 2 223 3 2 431 c1 262 -2 448 -9 475 -5 24 -12 52 -14 62 -2
9 -6 25 -8 35 -15 62 -77 181 -131 251 -77 101 -200 200 -292 237 -21 8 -52
22 -70 30 l-31 14 -89 -88 c-67 -68 -105 -96 -160 -123 l-72 -34 0 -140 -1
-140 -52 -48 c-49 -44 -52 -49 -34 -60 75 -48 81 -54 84 -81 4 -32 -18 -60
-67 -86 l-35 -17 27 -17 c15 -9 38 -23 52 -31 52 -32 26 -94 -58 -140 l-35
-18 59 -55 c41 -38 59 -62 59 -79 0 -19 -44 -87 -80 -123 -3 -3 -32 -38 -65
-79 -68 -84 -95 -105 -124 -96 -12 3 -63 66 -116 140 l-95 133 0 469 0 469
-33 12 c-19 7 -56 27 -83 44 -60 40 -184 157 -184 175 0 16 -1 16 -75 -12z"/>
</g>
</svg>
